<svg width="144" height="145" viewBox="0 0 144 145" fill="none" xmlns="http://www.w3.org/2000/svg">
<path d="M2.5 0.5H141.5C142.605 0.5 143.5 1.39543 143.5 2.5C143.5 3.60457 142.605 4.5 141.5 4.5H2.5C1.39543 4.5 0.5 3.60457 0.5 2.5C0.5 1.39543 1.39543 0.5 2.5 0.5ZM2.5 70.5H141.5C142.605 70.5 143.5 71.3954 143.5 72.5C143.5 73.6046 142.605 74.5 141.5 74.5H2.5C1.39543 74.5 0.5 73.6046 0.5 72.5C0.5 71.3954 1.39543 70.5 2.5 70.5ZM2.5 140.5H69.5C70.6046 140.5 71.5 141.395 71.5 142.5C71.5 143.605 70.6046 144.5 69.5 144.5H2.5C1.39543 144.5 0.5 143.605 0.5 142.5C0.5 141.395 1.39543 140.5 2.5 140.5Z" fill="black" stroke="black"/>
</svg>
